<svg xmlns="http://www.w3.org/2000/svg" width="1200" height="440" viewBox="0 0 1200 440" role="img" aria-label="Anshaj Malhotra, embedded, IoT and RTLS engineer. Animated floor plan with three gateways locating a moving tag."><title>Anshaj Malhotra, embedded, IoT and RTLS engineer. Animated floor plan with three gateways locating a moving tag.</title><style>
.s{font-family:'Segoe UI', -apple-system, BlinkMacSystemFont, 'Helvetica Neue', Helvetica, Arial, sans-serif} .m{font-family:'SFMono-Regular', Consolas, 'Liberation Mono', Menlo, monospace}
@media (prefers-reduced-motion: reduce){ .anim{display:none} }
</style><rect x="0.5" y="0.5" width="1199" height="439" rx="20" fill="#101317" stroke="#262c33"/><defs><pattern id="g" x="639" y="49" width="34" height="34" patternUnits="userSpaceOnUse"><circle cx="1" cy="1" r="1" fill="#262c33"/></pattern></defs><rect x="639" y="49" width="513" height="343" fill="url(#g)"/><path d="M640 50 H1150 V390 H940 M890 390 H640 Z M940 50 V190 M940 250 V390" fill="none" stroke="#3a4149" stroke-width="2"/><circle cx="965" cy="280" r="2.2" fill="#5d636b"/><circle cx="1110" cy="129" r="2.2" fill="#5d636b"/><circle cx="691" cy="317" r="2.2" fill="#5d636b"/><circle cx="817" cy="182" r="2.2" fill="#5d636b"/><circle cx="1043" cy="125" r="2.2" fill="#5d636b"/><circle cx="1088" cy="217" r="2.2" fill="#5d636b"/><circle cx="694" cy="345" r="2.2" fill="#5d636b"/><circle cx="929" cy="94" r="2.2" fill="#5d636b"/><circle cx="1054" cy="302" r="2.2" fill="#5d636b"/><circle cx="1008" cy="267" r="2.2" fill="#5d636b"/><circle cx="1127" cy="74" r="2.2" fill="#5d636b"/><circle cx="1118" cy="263" r="2.2" fill="#5d636b"/><circle cx="779" cy="254" r="2.2" fill="#5d636b"/><circle cx="819" cy="265" r="2.2" fill="#5d636b"/><circle cx="991" cy="227" r="2.2" fill="#5d636b"/><circle cx="706" cy="188" r="2.2" fill="#5d636b"/><circle cx="802" cy="295" r="2.2" fill="#5d636b"/><circle cx="1098" cy="303" r="2.2" fill="#5d636b"/><circle cx="909" cy="121" r="2.2" fill="#5d636b"/><circle cx="993" cy="150" r="2.2" fill="#5d636b"/><circle cx="1129" cy="122" r="2.2" fill="#5d636b"/><circle cx="1115" cy="75" r="2.2" fill="#5d636b"/><circle cx="1026" cy="174" r="2.2" fill="#5d636b"/><circle cx="930" cy="195" r="2.2" fill="#5d636b"/><circle cx="805" cy="201" r="2.2" fill="#5d636b"/><circle cx="1043" cy="176" r="2.2" fill="#5d636b"/><circle cx="830" cy="304" r="2.2" fill="#5d636b"/><circle class="anim" cx="680" cy="90" r="10" fill="none" stroke="#7fb3a8" stroke-width="1.5" opacity="0"><animate attributeName="r" from="10" to="190" dur="3.6s" begin="0.0s" repeatCount="indefinite"/><animate attributeName="opacity" values="0.55;0" dur="3.6s" begin="0.0s" repeatCount="indefinite"/></circle><circle class="anim" cx="680" cy="90" r="10" fill="none" stroke="#7fb3a8" stroke-width="1.5" opacity="0"><animate attributeName="r" from="10" to="190" dur="3.6s" begin="1.2s" repeatCount="indefinite"/><animate attributeName="opacity" values="0.55;0" dur="3.6s" begin="1.2s" repeatCount="indefinite"/></circle><rect x="672" y="82" width="16" height="16" rx="3" fill="#101317" stroke="#7fb3a8" stroke-width="2"/><text x="694" y="78" class="m" font-size="13" font-weight="500" fill="#7fb3a8" text-anchor="start" letter-spacing="0">GW1</text><circle class="anim" cx="1110" cy="110" r="10" fill="none" stroke="#7fb3a8" stroke-width="1.5" opacity="0"><animate attributeName="r" from="10" to="190" dur="3.6s" begin="0.6s" repeatCount="indefinite"/><animate attributeName="opacity" values="0.55;0" dur="3.6s" begin="0.6s" repeatCount="indefinite"/></circle><circle class="anim" cx="1110" cy="110" r="10" fill="none" stroke="#7fb3a8" stroke-width="1.5" opacity="0"><animate attributeName="r" from="10" to="190" dur="3.6s" begin="1.7999999999999998s" repeatCount="indefinite"/><animate attributeName="opacity" values="0.55;0" dur="3.6s" begin="1.7999999999999998s" repeatCount="indefinite"/></circle><rect x="1102" y="102" width="16" height="16" rx="3" fill="#101317" stroke="#7fb3a8" stroke-width="2"/><text x="1124" y="98" class="m" font-size="13" font-weight="500" fill="#7fb3a8" text-anchor="start" letter-spacing="0">GW2</text><circle class="anim" cx="820" cy="350" r="10" fill="none" stroke="#7fb3a8" stroke-width="1.5" opacity="0"><animate attributeName="r" from="10" to="190" dur="3.6s" begin="1.2s" repeatCount="indefinite"/><animate attributeName="opacity" values="0.55;0" dur="3.6s" begin="1.2s" repeatCount="indefinite"/></circle><circle class="anim" cx="820" cy="350" r="10" fill="none" stroke="#7fb3a8" stroke-width="1.5" opacity="0"><animate attributeName="r" from="10" to="190" dur="3.6s" begin="2.4s" repeatCount="indefinite"/><animate attributeName="opacity" values="0.55;0" dur="3.6s" begin="2.4s" repeatCount="indefinite"/></circle><rect x="812" y="342" width="16" height="16" rx="3" fill="#101317" stroke="#7fb3a8" stroke-width="2"/><text x="834" y="338" class="m" font-size="13" font-weight="500" fill="#7fb3a8" text-anchor="start" letter-spacing="0">GW3</text><path id="route" d="M710 330 C 780 230, 860 220, 970 220 S 1100 170, 1080 290 S 940 350, 710 330" fill="none" stroke="#8b919a" stroke-width="1.5" stroke-dasharray="4 6"/><g class="anim"><circle r="16" fill="#e3a857" opacity="0.18"><animateMotion dur="14s" repeatCount="indefinite" rotate="0"><mpath href="#route"/></animateMotion></circle><circle r="6" fill="#e3a857"><animateMotion dur="14s" repeatCount="indefinite"><mpath href="#route"/></animateMotion></circle></g><circle cx="970" cy="220" r="6" fill="#e3a857" opacity="0.0"/><text x="1144" y="420" class="m" font-size="13" font-weight="500" fill="#e3a857" text-anchor="end" letter-spacing="0">estimate</text><circle cx="1064" cy="415" r="4" fill="#e3a857"/><text x="1040" y="420" class="m" font-size="13" font-weight="400" fill="#8b919a" text-anchor="end" letter-spacing="0">ground truth</text><line x1="910" y1="415" x2="935" y2="415" stroke="#8b919a" stroke-dasharray="4 4" stroke-width="1.5"/><text x="64" y="110" class="m" font-size="15" font-weight="500" fill="#e3a857" text-anchor="start" letter-spacing="2">EMBEDDED, IOT AND RTLS ENGINEER</text><text x="62" y="178" class="s" font-size="56" font-weight="600" fill="#ede8df" text-anchor="start" letter-spacing="-1">Anshaj Malhotra</text><text x="64" y="236" class="s" font-size="23" font-weight="400" fill="#8b919a" text-anchor="start" letter-spacing="0">I turn radio signals into positions,</text><text x="64" y="268" class="s" font-size="23" font-weight="400" fill="#8b919a" text-anchor="start" letter-spacing="0">and positions into data people can use.</text><line x1="64" y1="318" x2="560" y2="318" stroke="#262c33"/><text x="64" y="356" class="s" font-size="16" font-weight="400" fill="#5d636b" text-anchor="start" letter-spacing="0">BLE, UWB and LoRaWAN hardware, from firmware to dashboard</text></svg>